<?xml version="1.0" encoding="utf-8"?>
<!-- Generator: Adobe Illustrator 16.0.0, SVG Export Plug-In . SVG Version: 6.00 Build 0)  -->
<!DOCTYPE svg PUBLIC "-//W3C//DTD SVG 1.1//EN" "http://www.w3.org/Graphics/SVG/1.1/DTD/svg11.dtd">
<svg version="1.1" id="Layer_2" xmlns="http://www.w3.org/2000/svg" xmlns:xlink="http://www.w3.org/1999/xlink" x="0px" y="0px"
	 width="791.425px" height="369.462px" viewBox="0 0 791.425 369.462" enable-background="new 0 0 791.425 369.462"
	 xml:space="preserve">
<path fill="#FFFFFF" d="M374.901,163.302c0.055-0.704,0.106-1.409,0.161-2.114c-10.994-0.991-21.986-1.981-34.128-3.077
	c0.343,2.749,0.746,4.335,0.705,5.91c-0.228,8.756,3.96,12.003,12.631,11.679c8.412-0.314,16.875,0.638,25.953,1.065
	c0.392-4.406,0.783-8.778,1.175-13.15c-0.557-0.082-1.113-0.165-1.667-0.248c-0.748,3.27-1.492,6.54-2.25,9.856
	c-7.88,0-15.255,0.045-22.63-0.012c-10.017-0.076-10.894-1.164-9.582-11.97C355.127,161.927,365.015,162.615,374.901,163.302z"/>
<path fill="#FFFFFF" d="M749.139,168.224c-0.535-1.693-2.913-3.668-4.608-3.833c-1.172-0.115-3.801,2.684-3.765,4.132
	c0.233,9.489,0.673,19.01,1.907,28.407c0.24,1.811,4.226,4.097,6.624,4.278c1.335,0.102,3.363-3.514,4.328-5.776
	c0.693-1.62,0.137-3.773,0.137-5.688c0.345-0.087,0.696-0.177,1.041-0.264C752.968,182.379,751.346,175.208,749.139,168.224z"/>
<path fill-rule="evenodd" clip-rule="evenodd" fill="#FFFFFF" d="M791.3,269.007c-0.779-3.8-4.262-8.267-7.739-10.02
	c-5.744-2.895-12.471-3.837-18.8-5.609c0-1.287-0.104-2.383,0.014-3.454c2.75-25.374,3.164-50.679-2.207-75.814
	c-3.972-18.598-3.94-19.062-22.513-20.869c-51.938-5.052-103.911-9.777-155.894-14.344c-6.065-0.532-9.672-2.21-12.841-7.962
	c-23.147-41.997-43.054-86.176-78.074-120.436c-3.037-2.972-7.643-5.677-11.729-6.021c-21.175-1.792-42.409-3.029-63.644-3.992
	C357.36-2.255,297.768,7.172,238.022,14.468c-2.106,0.257-4.156,0.962-6.235,1.457c0.089,0.808,0.178,1.616,0.267,2.421
	c27.854-3.118,55.707-6.237,83.957-9.401c0.176,2.176,0.327,3.499,0.383,4.827c1.476,35.317,2.665,70.648,4.636,105.938
	c0.412,7.396-0.992,9.346-8.514,9.524c-54.379,1.286-108.747,3.074-163.119,4.681c-3.397,0.101-6.8,0.013-9.646,0.013
	c29.015-35.873,57.745-71.393,86.476-106.912c-0.712-0.613-1.425-1.227-2.138-1.84c-2.998,3.147-6.209,6.118-8.961,9.468
	c-25.751,31.355-51.523,62.697-77,94.276c-3.449,4.275-6.874,6.18-12.344,6.546c-30.016,2.009-60.17,3.217-89.352,11.632
	c-4.099,1.182-8.05,2.876-12.069,4.333c0.258,0.73,0.517,1.458,0.775,2.188c48.396-12.574,98.084-13.95,147.52-17.567
	c49.469-3.619,98.972-3.386,148.262-3.076c0.352,1.912,0.528,2.44,0.535,2.969c0.691,51.86-5.649,103.688-0.699,155.56
	c0.562,5.913,1.862,11.756,2.822,17.63c2.348-0.946,3-1.635,2.967-2.29c-0.094-1.91-0.6-3.802-0.7-5.713
	c-1.115-21.188-2.981-42.376-3.075-63.571c-0.139-31.463,1.011-62.931,1.537-94.398c0.054-3.169-0.413-6.347-0.706-10.457
	c82.998-0.116,164.769,2.237,246.161,8.683c0,14.353,0.34,27.299-0.093,40.22c-0.438,13.225-1.509,26.435-2.562,39.63
	c-0.323,4.071-0.533,8.604-2.424,12.025c-14.075,25.469-19.553,51.511-6.974,79.263c0.613,1.351,0.652,2.96,1.118,5.223
	c-111.781-10.56-222.896-2.688-333.685,0.508c-0.446-2.02-0.778-2.609-0.651-3.073c1.023-3.724,2.267-7.39,3.192-11.137
	c7.495-30.29,2.86-58.352-19.764-80.502c-23.53-23.039-52.171-33.112-85.114-23.242c-27.489,8.236-45.376,27.585-56.894,53.103
	c-2.706,5.996-6.028,8.8-12.499,7.931c-7.906-1.062-15.809-2.284-23.755-2.874c-7.886-0.583-15.871-0.999-23.711-0.324
	c-2.265,0.197-6.226,4.705-5.933,6.737c2.078,14.42,4.945,28.731,7.881,43.014c0.424,2.066,2.556,3.783,4.68,6.759
	c-2.977-15.248-5.695-28.893-8.291-42.56c-1.887-9.938-1.159-11.887,8.973-11.342c15.772,0.846,31.45,3.467,45.421,5.128
	c0.822,16.788,1.618,33.06,2.493,50.927H15.762c0.032,0.669,0.066,1.338,0.098,2.006c14.461,0,28.936,0.353,43.374-0.222
	c4.162-0.165,6.987-0.211,8.389,4.036c6.113,18.527,20.624,28.677,36.553,37.432c6.289,2.266,12.701,4.679,18.577,7.897
	c3.018,0.022,6.03,0.162,8.989,0.837c0.625,0.143,1.201,0.384,1.746,0.672c5.468-0.008,10.937-0.024,16.404-0.044
	c6.919-2.331,14.065-4.382,21.278-5.518h-0.656c20.065-8.872,37.996-20.107,49.589-39.646c1.05-1.773,4.558-2.898,6.953-2.946
	c83.346-1.684,166.686-3.689,250.039-4.468c26.981-0.251,54.001,2.661,80.977,4.492c2.409,0.163,5.397,2.529,6.828,4.717
	c12.383,18.921,29.794,30.526,51.225,37.525c3.553,0.532,7.087,1.245,10.678,1.604c0.849,0.084,1.653,0.29,2.428,0.555
	c0.91-0.35,1.938-0.555,3.1-0.555c1.112,0,2.101,0.188,2.98,0.508c0.342-0.028,0.683-0.037,1.024-0.073
	c3.894-0.43,7.628-1.123,11.317-1.783c1.104-0.938,1.389-1.235,1.705-1.296c26.052-5.056,46.657-17.807,59.804-41.565
	c1.063-1.92,4.618-3.372,7.071-3.464c15.992-0.598,32.006-0.67,48.006-1.144c2.908-0.085,5.788-1.228,8.681-1.882
	c-0.129-0.314-0.259-0.628-0.388-0.943h-59.179c11.276-41.314,7.219-79.698-29.674-106.878
	c-38.65-28.47-76.296-16.352-112.441,8.176c-0.062-0.697-0.272-1.709-0.228-2.707c0.998-20.67,2.419-41.333,2.827-62.015
	c0.138-6.966,2.301-8.4,8.655-7.838c34.109,3.017,68.27,5.48,102.363,8.647c21.432,1.989,42.803,4.729,64.141,7.554
	c2.59,0.343,6.334,2.865,6.999,5.126c7.832,26.635,7.788,53.891,5.79,81.302c-0.496,6.831-3.379,8.92-9.974,8.357
	c-6.781-0.577-13.651-0.127-20.487-0.127c0.008,1.234,0.014,2.47,0.019,3.705c3.092,0,6.21-0.263,9.266,0.046
	c12.566,1.266,25.296,1.824,37.614,4.349c10.795,2.211,11.752,5.741,7.377,16.053c-3.806,8.979-7.713,17.915-12.362,28.694
	C781.214,299.095,792.751,276.089,791.3,269.007z M139.894,363.864c-49.674,1.531-86.626-49.006-76.447-90.378
	c7.867-31.981,27.944-66.91,74.896-72.677c30.264-3.718,55.83,8.582,73.933,32.374c18.228,23.957,20.381,51.845,8.696,79.396
	C205.985,347.925,176.618,362.188,139.894,363.864z M562.168,137.022c-75.882-2.643-151.756-5.388-227.642-7.801
	c-6.397-0.205-9.481-1.425-9.776-8.45c-1.536-36.68-3.428-73.344-5.168-110.015c-0.024-0.506,0.325-1.033,0.925-2.803
	c11.9-1.073,23.697-3.157,35.465-3.013c41.391,0.508,82.774,1.613,124.139,3.033c4.044,0.139,8.854,3.167,11.788,6.285
	c23.429,24.92,41.956,53.264,57.38,83.731c6.455,12.745,13.371,25.256,20.706,39.044
	C566.728,137.034,564.445,137.102,562.168,137.022z M636.354,195.155c48.226,1.161,78.089,33.578,78.806,85.896
	c0.623,45.393-35.276,79.562-82.6,79.82c-43.1,0.371-76.991-39.118-78.07-77.952C553.19,236.171,592.102,194.092,636.354,195.155z"
	/>
<path fill-rule="evenodd" clip-rule="evenodd" fill="#FFFFFF" d="M23.328,253.845c-2.979-31.733-2.418-63.499,0.705-95.933
	c1.574,8.067,6.632,7.621,12.098,6.336c0.537-0.127,1.089-0.393,1.612-0.345c4.802,0.437,13.235-0.11,13.722,1.598
	c1.554,5.438,0.478,11.77-0.394,17.634c-0.17,1.146-3.955,2.398-6.125,2.5C25.226,186.563,25,186.497,25.34,205.559
	c0.272,15.142,1.187,30.27,1.76,45.406c0.036,0.974-0.398,1.965-0.615,2.95C25.433,253.893,24.381,253.869,23.328,253.845z
	 M26.173,183.659c4.324-0.629,8.071-1.418,11.855-1.677c10.909-0.744,12.585-3.054,9.521-14.741
	c-3.301,0.197-6.817,0.164-10.255,0.66C24.598,169.738,24.177,170.379,26.173,183.659z"/>
<path fill-rule="evenodd" clip-rule="evenodd" fill="#FFFFFF" d="M753.762,189.744c0,1.915,0.557,4.068-0.137,5.688
	c-0.965,2.262-2.993,5.877-4.328,5.776c-2.398-0.182-6.384-2.467-6.624-4.278c-1.234-9.396-1.674-18.918-1.907-28.407
	c-0.036-1.449,2.593-4.248,3.765-4.132c1.695,0.165,4.073,2.14,4.608,3.833c2.207,6.984,3.829,14.155,5.664,21.256
	C754.458,189.567,754.106,189.657,753.762,189.744z M745.757,197.105c1.562-0.166,3.123-0.332,4.684-0.498
	c-1.038-8.239-2.075-16.48-3.113-24.719c-1.081,0.126-2.157,0.25-3.239,0.377C744.645,180.545,745.201,188.826,745.757,197.105z"/>
<path fill-rule="evenodd" clip-rule="evenodd" fill="#FFFFFF" d="M340.935,158.111c12.142,1.096,23.134,2.086,34.128,3.077
	c-0.055,0.705-0.106,1.41-0.161,2.114c-9.887-0.688-19.774-1.375-29.632-2.06c-1.312,10.806-0.435,11.894,9.582,11.97
	c7.375,0.057,14.75,0.012,22.63,0.012c0.758-3.317,1.502-6.587,2.25-9.856c0.554,0.083,1.11,0.166,1.667,0.248
	c-0.392,4.372-0.783,8.745-1.175,13.15c-9.078-0.427-17.541-1.379-25.953-1.065c-8.671,0.324-12.858-2.923-12.631-11.679
	C341.681,162.446,341.277,160.86,340.935,158.111z"/>
<path fill-rule="evenodd" clip-rule="evenodd" fill="#FFFFFF" d="M745.757,197.105c-0.556-8.279-1.112-16.56-1.669-24.84
	c1.082-0.126,2.158-0.25,3.239-0.377c1.038,8.239,2.075,16.48,3.113,24.719C748.88,196.774,747.319,196.939,745.757,197.105z"/>
<path fill-rule="evenodd" clip-rule="evenodd" fill="#FFFFFF" d="M157.145,243.023c-7.954-1.149-10.718,2.162-9.968,10.161
	c0.711,7.595,0.153,15.311,0.153,21.637c15.415,11.236,24.878-2.329,36.276-6.946c1.339-0.543,1.566-3.825,2.31-5.839
	c1.44,2.512,2.88,5.024,4.32,7.536c-9.498,4.521-19.237,8.628-28.264,13.946c-1.582,0.931-1.132,7.285,0.041,10.536
	c3.223,8.925,7.33,17.533,11.086,26.267c-0.755,0.351-1.512,0.7-2.269,1.052c-3.86-9.22-7.722-18.44-11.214-26.78
	c-6.701,1.034-12.795,1.595-18.668,3.049c-2.722,0.674-5.097,2.979-7.484,4.74c-5.853,4.322-11.622,8.76-17.424,13.148
	c-0.453-0.563-0.905-1.129-1.357-1.694c7.746-6.146,15.493-12.29,23.453-18.604c-1.082-4.255-2.152-8.466-3.223-12.679l-0.217,0.231
	c8.823-3.087,11.03-9.506,10.114-18.282c-0.702-6.724-0.139-13.58-0.139-22.254c-6.63,1.968-11.724,3.479-16.818,4.991
	C136.813,240.247,146.553,238.671,157.145,243.023z M158.385,283.18c-2.121-0.918-4.955-2.889-8.009-3.32
	c-6.546-0.932-10.956,2.448-10.719,9.023c0.083,2.326,3.883,5.972,6.464,6.452C151.609,296.356,158.212,290.318,158.385,283.18z"/>
<path fill-rule="evenodd" clip-rule="evenodd" fill="#FFFFFF" d="M98.163,278.471c-2.738,26.913,9.461,44.413,34.086,54.08
	C106.413,328.716,90.303,303.157,98.163,278.471z"/>
<path fill-rule="evenodd" clip-rule="evenodd" fill="#FFFFFF" d="M659.326,241.385c-13.04-4.015-12.932-3.953-20.111,9.13
	c-2.559,4.66-5.801,8.942-8.748,13.418c4.386-9.29,8.784-18.602,13.206-27.961c-14.486-4.696-27.734-2.552-38.942,7.177
	c-3.762,3.266-5.982,8.308-8.906,12.537c-0.465-0.18-1.18-0.649-1.355-0.495c-9.723,8.37-11.853,32.387-3.41,43.633
	c9.688-6.283,19.408-12.59,26.806-17.39c-7.7-8.951-15.028-17.467-22.353-25.981c7.167,5.6,14.334,11.201,21.648,16.915
	c4.45-2.879,9.007-5.826,13.558-8.771c0.888,2.508,1.855,4.99,2.64,7.528c2.364,7.659-2.433,13.528-10.099,12.73
	c-1.933-0.201-4.306,0.168-5.923,1.168c-8.577,5.318-16.983,10.919-26.135,16.869c2.696,4.428,5.17,8.483,7.643,12.539
	c-17.981-13.125-18.005-39.062-9.826-55.388C603.476,230.169,633.143,222.522,659.326,241.385z M629.016,269.687
	c-6.808,0.956-6.189,5.767-5.242,10.322c0.129,0.633,3.945,1.527,4.626,0.854C631.755,277.547,633.173,273.696,629.016,269.687z"/>
<path fill-rule="evenodd" clip-rule="evenodd" fill="#FFFFFF" d="M666.571,310.114c2.934-7.229,5.865-14.457,9.029-22.258
	c-14.331-1.388-27.087-2.622-39.843-3.857c0.028-0.664,0.055-1.325,0.08-1.987c12.743,0.894,25.485,1.788,38.536,2.705
	c2.489-14.891-4.031-26.159-9.438-37.709C680.675,264.449,681.44,294.163,666.571,310.114z"/>
<path fill-rule="evenodd" clip-rule="evenodd" fill="#FFFFFF" d="M598.533,314.122c8.906,5.011,16.927,12.238,29.879,11.569
	c-0.587-11.988-1.153-23.597-1.721-35.206c0.619-0.055,1.237-0.111,1.855-0.168c0.905,11.455,1.812,22.909,2.808,35.567
	c4.631-0.577,9.343-1.165,14.057-1.753C630.037,331.65,609.584,327.281,598.533,314.122z"/>
<path fill-rule="evenodd" clip-rule="evenodd" fill="#FFFFFF" d="M134.912,282.553c-5.157-2.237-10.441-4.227-15.431-6.792
	c-4.215-2.167-8.088-4.999-11.854-8.143c10.184,2.696,18.543,9.087,27.062,15.17C134.695,282.784,134.912,282.553,134.912,282.553z"
	/>
</svg>
