<?xml version="1.0" encoding="utf-8"?>
<!-- Generator: Adobe Illustrator 16.0.0, SVG Export Plug-In . SVG Version: 6.00 Build 0)  -->
<!DOCTYPE svg PUBLIC "-//W3C//DTD SVG 1.1//EN" "http://www.w3.org/Graphics/SVG/1.1/DTD/svg11.dtd">
<svg version="1.1" xmlns="http://www.w3.org/2000/svg" xmlns:xlink="http://www.w3.org/1999/xlink" x="0px" y="0px"
	 width="79.163px" height="1111.868px" viewBox="0 0 79.163 1111.868" enable-background="new 0 0 79.163 1111.868"
	 xml:space="preserve">
<g id="Layer_2" display="none">
	<polyline display="inline" fill-rule="evenodd" clip-rule="evenodd" fill="#6D6D6D" points="23.28,483.833 10.175,1306.888 
		45.675,1306.888 59.082,487.36 	"/>
</g>
<g id="Layer_1" display="none">
	<path display="inline" fill-rule="evenodd" clip-rule="evenodd" fill="#FFFFFF" stroke="#000000" stroke-miterlimit="10" d="
		M147.966-32.27c7.876-3.676,7.209-0.176,12.704,1.366c6.484,5.983,12.801,12.153,19.11,18.323
		c35.364,34.583,70.704,69.19,106.054,103.788c8.211,8.035,16.606,15.895,24.522,24.211c2.044,2.146,3.644,5.705,3.671,8.632
		c0.341,36.637,0.317,73.276,0.464,109.916c0.127,32.133,0.278,64.267,0.627,96.397c0.042,3.849-1.013,6.752-3.659,9.309
		c-9.182,8.87-18.331,17.772-27.525,26.628c-15.104,14.547-30.274,29.023-45.341,43.607c-19.342,18.723-38.6,37.53-57.91,56.284
		c-6.191,6.013-12.608,11.805-18.592,18.016c-3.94,4.09-8.58,5.272-13.911,5.143c-48.633-1.187-97.266-2.4-145.899-3.518
		c-20.98-0.481-41.967-0.672-62.944-1.233c-2.38-0.063-5.354-1.043-6.975-2.67c-13.862-13.915-27.5-28.054-41.159-42.17
		c-34.388-35.538-68.571-71.279-103.302-106.479c-5.969-6.049-5.912-12.51-5.869-19.542c0.091-14.807,0.362-29.612,0.638-44.417
		c0.833-44.692,1.682-89.384,2.586-134.075c0.138-6.781,0.268-13.597,1.093-20.312c0.309-2.517,2.125-5.275,4.038-7.105
		c25.851-24.729,51.87-49.282,77.786-73.942c23.256-22.129,46.406-44.368,69.719-66.436c1.509-1.429,4.015-2.578,6.047-2.562
		c34.963,0.28,69.924,0.811,104.887,1.182c17.485,0.186,34.974,0.062,52.458,0.285c6.438,0.083,12.864,1.013,19.302,1.103
		c7.455,0.104,14.932-0.089,22.372-0.562C146.532-33.332,143.008-34.112,147.966-32.27z M300.779,227.012c-0.27,0-0.539,0-0.809,0
		c0-33.145,0.052-66.289-0.118-99.433c-0.011-2.151-1.183-4.84-2.722-6.358c-20.615-20.325-41.448-40.43-62.113-60.704
		c-25.066-24.593-49.966-49.355-75.102-73.876c-3.299-3.219-6.199-7.652-11.791-7.468c-2.469,0.081-4.937,0.394-7.402,0.365
		C77.475-21.178,14.227-21.881-49.02-22.764c-4.184-0.058-7.14,1.086-10.062,3.986C-68.767-9.17-78.666,0.221-88.516,9.659
		c-22.211,21.286-44.424,42.569-66.671,63.817c-14.44,13.791-29.016,27.442-43.322,41.371c-1.794,1.747-3.109,4.759-3.271,7.272
		c-0.594,9.281-0.676,18.6-0.833,27.905c-0.899,53.061-1.704,106.122-2.708,159.181c-0.144,7.596-0.418,14.891,6.587,20.034
		c1.726,1.268,3.253,2.831,4.755,4.372c20.202,20.724,40.383,41.466,60.568,62.206c22.162,22.771,44.247,45.618,66.57,68.229
		c3.184,3.225,5.716,7.543,11.643,7.537c16.798-0.019,33.597,0.552,50.396,0.885c28.533,0.566,57.067,1.087,85.599,1.704
		c22.05,0.478,44.098,1.029,66.143,1.668c3.376,0.098,5.94-0.787,8.388-3.217c13.327-13.231,26.812-26.304,40.214-39.46
		c33.846-33.227,67.644-66.502,101.573-99.643c2.603-2.542,3.755-4.986,3.741-8.631
		C300.727,292.266,300.779,259.639,300.779,227.012z"/>
	<path display="inline" fill-rule="evenodd" clip-rule="evenodd" fill="#FE100C" d="M301.608,227.594
		c0,32.627-0.053,65.254,0.075,97.88c0.014,3.645-1.139,6.089-3.741,8.631c-33.93,33.141-67.728,66.416-101.573,99.643
		c-13.401,13.156-26.887,26.229-40.214,39.46c-2.447,2.43-5.012,3.314-8.388,3.217c-22.045-0.639-44.093-1.19-66.143-1.668
		c-28.531-0.617-57.065-1.138-85.599-1.704c-16.799-0.333-33.598-0.903-50.396-0.885c-5.927,0.006-8.459-4.312-11.643-7.537
		c-22.323-22.611-44.408-45.459-66.57-68.229c-20.185-20.74-40.366-41.482-60.568-62.206c-1.502-1.541-3.029-3.104-4.755-4.372
		c-7.005-5.144-6.73-12.438-6.587-20.034c1.004-53.059,1.809-106.12,2.708-159.181c0.158-9.306,0.239-18.624,0.833-27.905
		c0.161-2.514,1.476-5.525,3.271-7.272c14.306-13.929,28.882-27.58,43.322-41.371c22.247-21.248,44.46-42.531,66.671-63.817
		c9.85-9.438,19.749-18.829,29.434-28.437c2.923-2.9,5.879-4.044,10.062-3.986c63.246,0.883,126.494,1.586,189.742,2.302
		c2.466,0.028,4.934-0.284,7.402-0.365c5.592-0.185,8.492,4.249,11.791,7.468c25.136,24.521,50.035,49.283,75.102,73.876
		c20.665,20.274,41.498,40.379,62.113,60.704c1.539,1.519,2.711,4.207,2.722,6.358c0.17,33.144,0.118,66.288,0.118,99.433
		C301.069,227.594,301.339,227.594,301.608,227.594z M38.95,223.037c-0.334,20.717,1.482,38.221,5.205,55.535
		c5.816,27.054,31.046,42.986,57.766,35.803c16.512-4.439,27.058-15.358,31.501-32.176c6.107-23.114,8.923-46.504,8.13-70.442
		c-0.5-15.077-2.56-29.758-7.032-44.143c-6.22-20.001-19.384-31.431-40.435-33.938c-18.64-2.221-39.528,10.286-45.529,27.937
		C41.455,182.5,39.591,204.178,38.95,223.037z M198.905,237.828c10.357,0,19.97-0.034,29.582,0.008
		c14.66,0.063,26.034-5.983,33.81-18.411c10.602-16.947,11.244-34.79,3.972-53.058c-6.481-16.281-19.792-27.306-39.213-26.771
		c-10.965,0.302-21.951-0.209-32.928-0.3c-6.771-0.057-13.542-0.011-20.735-0.011c0,58.318,0,116.079,0,174.558
		c7.7,0,14.849,0.167,21.975-0.16c1.214-0.056,3.248-2.162,3.334-3.426c0.379-5.637,0.2-11.312,0.202-16.973
		C198.909,274.988,198.905,256.691,198.905,237.828z M-78.481,175.617c-0.442-3.538-0.539-6.698-1.262-9.706
		c-4.652-19.357-20.292-32.475-40.158-33.855c-17.497-1.217-34.893,9.128-42.912,25.519c-7.551,15.433-4.607,34.064,7.052,47.459
		c6.468,7.431,15.057,11.359,23.568,15.449c16.612,7.983,28.158,19.752,30.602,38.893c2.192,17.169-14.068,30.687-30.088,24.854
		c-9.621-3.504-14.562-10.935-15.319-22.388c-0.111-1.684-1.625-4.636-2.607-4.685c-7.734-0.39-15.498-0.217-24.751-0.217
		c1.466,7.43,2.037,14.608,4.34,21.181c6.772,19.326,20.619,30.938,41.072,32.991c20.145,2.022,36.519-5.836,46.694-23.454
		c12.39-21.451,7.679-42.461-4.786-62.217c-8.992-14.253-22.852-22.889-37.555-30.346c-3.964-2.011-8.008-4.249-11.249-7.22
		c-7.038-6.45-7.624-15.521-2.143-22.937c5.462-7.39,14.975-9.53,23.125-5.458c6.631,3.313,10.105,8.774,11.333,16.137
		C-95.315,175.617-87.378,175.617-78.481,175.617z M-5.757,158.832c2.534,0,4.005-0.021,5.476,0.004
		c7.486,0.127,14.975,0.393,22.457,0.284c1.318-0.02,3.701-1.53,3.747-2.443c0.325-6.565,0.174-13.154,0.174-20.526
		c-29.827,0-58.967,0-88.838,0c0,5.611,0.166,11.251-0.06,16.875c-0.146,3.644,0.992,4.981,4.82,4.863
		c8.743-0.271,17.501-0.086,25.919-0.086c0,51.434,0,101.579,0,152.66c6.607,0,13.08-0.225,19.528,0.081
		c4.168,0.197,5.746-0.72,5.766-5.407c0.171-42.072,0.641-84.144,1.003-126.216C-5.709,172.468-5.757,166.013-5.757,158.832z"/>
	<path display="inline" fill-rule="evenodd" clip-rule="evenodd" fill="#FFFFFF" d="M38.121,222.455
		c0.641-18.859,2.505-40.537,9.605-61.424c6.001-17.65,26.89-30.157,45.529-27.937c21.051,2.507,34.215,13.937,40.435,33.938
		c4.473,14.385,6.532,29.065,7.032,44.143c0.793,23.938-2.022,47.328-8.13,70.442c-4.443,16.817-14.989,27.736-31.501,32.176
		c-26.72,7.184-51.949-8.749-57.766-35.803C39.604,260.676,37.787,243.172,38.121,222.455z M63.153,233.898
		c1.392,8.933,3.388,23.916,6.152,38.755c1.952,10.477,9.204,16.725,18.113,17.035c10.048,0.35,17.676-5.321,20.731-15.955
		c7.605-26.465,9.031-53.417,5.226-80.592c-1.074-7.671-2.994-15.383-5.732-22.619c-3.048-8.055-11.922-12.773-20.04-12.153
		c-7.479,0.571-13.804,6.225-16.487,14.627C65.431,190.799,64.26,209.223,63.153,233.898z"/>
	<path display="inline" fill-rule="evenodd" clip-rule="evenodd" fill="#FFFFFF" d="M198.076,237.246
		c0,18.863,0.004,37.16-0.002,55.456c-0.002,5.661,0.177,11.336-0.202,16.973c-0.086,1.264-2.12,3.37-3.334,3.426
		c-7.126,0.327-14.274,0.16-21.975,0.16c0-58.479,0-116.239,0-174.558c7.193,0,13.965-0.046,20.735,0.011
		c10.977,0.091,21.963,0.602,32.928,0.3c19.421-0.534,32.731,10.49,39.213,26.771c7.272,18.268,6.63,36.11-3.972,53.058
		c-7.775,12.428-19.149,18.475-33.81,18.411C218.046,237.212,208.434,237.246,198.076,237.246z M198.376,212.031
		c9.616,0,18.426,0.182,27.224-0.05c9.37-0.247,15.234-4.577,16.827-13.759c1.112-6.407,1.113-13.269,0.139-19.704
		c-1.08-7.128-5.547-13.188-13.154-13.849c-10.164-0.883-20.463-0.219-31.035-0.219C198.376,180.099,198.376,195.62,198.376,212.031
		z"/>
	<path display="inline" fill-rule="evenodd" clip-rule="evenodd" fill="#FFFFFF" d="M-79.311,175.035c-8.896,0-16.834,0-25.045,0
		c-1.228-7.362-4.702-12.823-11.333-16.137c-8.149-4.072-17.663-1.932-23.125,5.458c-5.481,7.416-4.895,16.486,2.143,22.937
		c3.241,2.971,7.285,5.209,11.249,7.22c14.703,7.457,28.562,16.093,37.555,30.346c12.465,19.756,17.176,40.766,4.786,62.217
		c-10.176,17.618-26.55,25.477-46.694,23.454c-20.453-2.053-34.299-13.665-41.072-32.991c-2.303-6.572-2.874-13.751-4.34-21.181
		c9.253,0,17.017-0.173,24.751,0.217c0.982,0.049,2.496,3.001,2.607,4.685c0.756,11.453,5.698,18.884,15.319,22.388
		c16.02,5.833,32.281-7.685,30.088-24.854c-2.443-19.141-13.989-30.909-30.602-38.893c-8.512-4.09-17.1-8.019-23.568-15.449
		c-11.659-13.395-14.603-32.026-7.052-47.459c8.019-16.391,25.415-26.735,42.912-25.519c19.866,1.381,35.506,14.498,40.158,33.855
		C-79.85,168.337-79.753,171.497-79.311,175.035z"/>
	<path display="inline" fill-rule="evenodd" clip-rule="evenodd" fill="#FFFFFF" d="M-6.586,158.25
		c0,7.181,0.048,13.636-0.008,20.089c-0.362,42.072-0.832,84.144-1.003,126.216c-0.02,4.688-1.598,5.604-5.766,5.407
		c-6.448-0.306-12.921-0.081-19.528-0.081c0-51.081,0-101.227,0-152.66c-8.418,0-17.176-0.185-25.919,0.086
		c-3.828,0.118-4.966-1.22-4.82-4.863c0.226-5.624,0.06-11.264,0.06-16.875c29.871,0,59.011,0,88.838,0
		c0,7.372,0.151,13.961-0.174,20.526c-0.046,0.913-2.429,2.424-3.747,2.443c-7.482,0.108-14.971-0.157-22.457-0.284
		C-2.581,158.229-4.052,158.25-6.586,158.25z"/>
	<path display="inline" fill-rule="evenodd" clip-rule="evenodd" fill="#FE100C" d="M63.153,233.898
		c1.106-24.676,2.277-43.1,7.963-60.902c2.684-8.402,9.009-14.056,16.487-14.627c8.118-0.62,16.992,4.099,20.04,12.153
		c2.738,7.236,4.658,14.948,5.732,22.619c3.806,27.175,2.38,54.127-5.226,80.592c-3.056,10.634-10.684,16.305-20.731,15.955
		c-8.909-0.311-16.161-6.559-18.113-17.035C66.541,257.814,64.545,242.831,63.153,233.898z"/>
	<path display="inline" fill-rule="evenodd" clip-rule="evenodd" fill="#FE100C" d="M198.376,212.031c0-16.411,0-31.933,0-47.58
		c10.572,0,20.871-0.664,31.035,0.219c7.607,0.66,12.074,6.721,13.154,13.849c0.975,6.436,0.974,13.297-0.139,19.704
		c-1.593,9.182-7.457,13.512-16.827,13.759C216.802,212.213,207.992,212.031,198.376,212.031z"/>
</g>
<g id="Layer_3" display="none">
	<ellipse display="inline" fill-rule="evenodd" clip-rule="evenodd" cx="41.898" cy="437.554" rx="7.13" ry="6.667"/>
</g>
<g id="Layer_4">
	<polyline fill-rule="evenodd" clip-rule="evenodd" fill="#FFFFFF" points="38.286,353.33 35.876,1192.697 42.405,1192.697 
		44.871,356.927 	"/>
	<path fill-rule="evenodd" clip-rule="evenodd" fill="#FFFFFF" stroke="#000000" stroke-miterlimit="10" d="M54.341,9.197
		c1.169-3.027,1.07-0.145,1.887,1.125c0.963,4.927,1.901,10.007,2.837,15.087c5.252,28.476,10.5,56.972,15.749,85.459
		c1.219,6.616,2.466,13.088,3.642,19.936c0.303,1.768,0.541,4.698,0.545,7.107c0.051,30.167,0.047,60.336,0.069,90.506
		c0.019,26.458,0.042,52.917,0.093,79.374c0.006,3.169-0.15,5.56-0.543,7.665c-1.363,7.304-2.722,14.634-4.087,21.926
		c-2.243,11.978-4.496,23.898-6.733,35.906c-2.873,15.417-5.732,30.903-8.6,46.345c-0.919,4.951-1.873,9.72-2.761,14.834
		c-0.585,3.368-1.274,4.341-2.066,4.234c-7.222-0.977-14.444-1.977-21.666-2.896c-3.116-0.396-6.232-0.553-9.347-1.016
		c-0.354-0.052-0.795-0.859-1.036-2.198c-2.059-11.458-4.084-23.1-6.112-34.723c-5.106-29.262-10.183-58.692-15.34-87.676
		c-0.887-4.98-0.878-10.301-0.872-16.091c0.014-12.192,0.054-24.383,0.095-36.573c0.124-36.8,0.25-73.6,0.384-110.398
		c0.021-5.584,0.04-11.196,0.163-16.726c0.046-2.072,0.315-4.344,0.6-5.851c3.839-20.362,7.702-40.58,11.551-60.885
		c3.454-18.221,6.891-36.533,10.353-54.704c0.224-1.176,0.596-2.123,0.898-2.11c5.192,0.23,10.384,0.667,15.576,0.973
		c2.596,0.153,5.193,0.052,7.79,0.235c0.956,0.068,1.911,0.834,2.867,0.908c1.107,0.085,2.217-0.073,3.322-0.462
		C54.128,8.322,53.605,7.68,54.341,9.197z M77.034,222.691c-0.04,0-0.08,0-0.12,0c0-27.292,0.008-54.583-0.018-81.874
		c-0.001-1.771-0.175-3.985-0.404-5.235c-3.062-16.736-6.155-33.29-9.224-49.984c-3.722-20.25-7.419-40.64-11.152-60.83
		c-0.49-2.65-0.92-6.301-1.751-6.149c-0.366,0.066-0.733,0.324-1.099,0.3c-9.392-0.589-18.784-1.168-28.176-1.895
		c-0.621-0.047-1.06,0.894-1.494,3.282c-1.438,7.911-2.908,15.643-4.371,23.415c-3.298,17.527-6.597,35.052-9.9,52.547
		c-2.144,11.356-4.309,22.596-6.433,34.065c-0.267,1.438-0.462,3.918-0.485,5.988c-0.088,7.642-0.101,15.315-0.124,22.977
		c-0.133,43.69-0.253,87.382-0.402,131.071c-0.021,6.254-0.062,12.261,0.979,16.496c0.256,1.044,0.483,2.331,0.706,3.6
		c3,17.064,5.997,34.143,8.994,51.221c3.291,18.75,6.57,37.562,9.885,56.181c0.473,2.655,0.849,6.211,1.729,6.206
		c2.495-0.015,4.989,0.455,7.484,0.729c4.237,0.466,8.474,0.895,12.711,1.403c3.274,0.393,6.548,0.848,9.822,1.374
		c0.501,0.08,0.882-0.648,1.245-2.649c1.979-10.895,3.982-21.659,5.972-32.492c5.026-27.359,10.045-54.758,15.083-82.046
		c0.387-2.093,0.558-4.105,0.556-7.106C77.026,276.421,77.034,249.556,77.034,222.691z"/>
	<path fill-rule="evenodd" clip-rule="evenodd" fill="#FE100C" d="M77.157,223.17c0,26.865-0.008,53.73,0.011,80.595
		c0.002,3.001-0.169,5.014-0.556,7.107c-5.038,27.288-10.057,54.688-15.083,82.046c-1.99,10.833-3.993,21.597-5.972,32.492
		c-0.364,2-0.745,2.729-1.246,2.648c-3.274-0.526-6.548-0.98-9.822-1.374c-4.237-0.508-8.474-0.937-12.711-1.403
		c-2.495-0.274-4.989-0.744-7.484-0.729c-0.88,0.005-1.256-3.551-1.729-6.206c-3.315-18.619-6.594-37.432-9.885-56.181
		c-2.998-17.078-5.994-34.157-8.994-51.221c-0.223-1.269-0.45-2.556-0.706-3.6c-1.041-4.235-1-10.242-0.978-16.496
		c0.149-43.688,0.269-87.38,0.402-131.07c0.023-7.663,0.036-15.335,0.124-22.978c0.024-2.07,0.219-4.55,0.485-5.988
		c2.125-11.469,4.289-22.709,6.433-34.065c3.304-17.496,6.603-35.021,9.901-52.548c1.462-7.771,2.933-15.504,4.371-23.415
		c0.434-2.388,0.873-3.33,1.494-3.283c9.392,0.727,18.784,1.306,28.176,1.896c0.366,0.023,0.733-0.234,1.1-0.301
		c0.83-0.152,1.261,3.499,1.751,6.149c3.732,20.19,7.43,40.58,11.152,60.83c3.068,16.694,6.162,33.248,9.224,49.984
		c0.229,1.25,0.402,3.464,0.404,5.235c0.025,27.291,0.018,54.582,0.018,81.874C77.077,223.17,77.117,223.17,77.157,223.17z
		 M38.153,219.418c-0.05,17.058,0.22,31.471,0.773,45.728c0.864,22.276,4.61,35.395,8.578,29.48
		c2.452-3.655,4.018-12.646,4.678-26.494c0.907-19.032,1.325-38.292,1.207-58.003c-0.074-12.415-0.38-24.502-1.044-36.347
		c-0.924-16.469-2.878-25.88-6.004-27.944c-2.768-1.829-5.87,8.47-6.761,23.003C38.525,186.04,38.248,203.89,38.153,219.418z
		 M61.906,231.597c1.538,0,2.965-0.028,4.393,0.007c2.177,0.052,3.866-4.927,5.021-15.16c1.574-13.955,1.669-28.646,0.59-43.688
		c-0.963-13.406-2.939-22.483-5.823-22.044c-1.628,0.249-3.26-0.172-4.89-0.247c-1.005-0.047-2.011-0.009-3.079-0.009
		c0,48.02,0,95.58,0,143.732c1.144,0,2.205,0.137,3.263-0.132c0.18-0.046,0.482-1.78,0.495-2.821
		c0.056-4.642,0.03-9.314,0.03-13.976C61.906,262.195,61.906,247.129,61.906,231.597z M20.714,180.373
		c-0.065-2.914-0.08-5.516-0.188-7.992c-0.691-15.939-3.013-26.74-5.963-27.877c-2.598-1.001-5.181,7.516-6.372,21.012
		c-1.122,12.708-0.684,28.049,1.047,39.078c0.961,6.119,2.236,9.354,3.5,12.721c2.467,6.573,4.182,16.264,4.544,32.024
		c0.325,14.137-2.089,25.267-4.468,20.464c-1.429-2.885-2.163-9.003-2.275-18.434c-0.016-1.386-0.241-3.817-0.387-3.857
		c-1.148-0.321-2.301-0.178-3.675-0.178c0.218,6.117,0.303,12.028,0.645,17.44c1.006,15.914,3.062,25.475,6.099,27.166
		c2.991,1.665,5.423-4.806,6.934-19.312c1.84-17.663,1.14-34.962-0.711-51.229c-1.335-11.736-3.394-18.847-5.577-24.987
		c-0.589-1.655-1.189-3.499-1.67-5.944c-1.045-5.312-1.132-12.78-0.318-18.886c0.811-6.084,2.224-7.847,3.434-4.494
		c0.984,2.728,1.5,7.225,1.683,13.287C18.215,180.373,19.393,180.373,20.714,180.373z M31.514,166.551
		c0.376,0,0.595-0.018,0.813,0.003c1.111,0.104,2.224,0.323,3.334,0.234c0.196-0.016,0.55-1.26,0.557-2.012
		c0.048-5.406,0.026-10.832,0.026-16.902c-4.429,0-8.756,0-13.192,0c0,4.621,0.025,9.264-0.009,13.895
		c-0.021,3,0.147,4.102,0.716,4.004c1.298-0.223,2.599-0.07,3.849-0.07c0,42.351,0,83.641,0,125.701c0.981,0,1.942-0.185,2.9,0.067
		c0.619,0.163,0.853-0.593,0.856-4.453c0.025-34.643,0.095-69.284,0.149-103.927C31.521,177.779,31.514,172.464,31.514,166.551z"/>
	<path fill-rule="evenodd" clip-rule="evenodd" fill="#FFFFFF" d="M38.03,218.939c0.095-15.529,0.372-33.378,1.426-50.577
		c0.891-14.533,3.993-24.832,6.761-23.003c3.126,2.064,5.081,11.475,6.005,27.944c0.664,11.844,0.97,23.933,1.044,36.347
		c0.118,19.711-0.3,38.97-1.207,58.002c-0.66,13.848-2.226,22.838-4.678,26.494c-3.968,5.915-7.714-7.204-8.578-29.48
		C38.25,250.41,37.98,235.998,38.03,218.939z M41.747,228.362c0.207,7.355,0.503,19.692,0.914,31.911
		c0.29,8.626,1.367,13.771,2.689,14.027c1.492,0.288,2.625-4.381,3.079-13.137c1.129-21.792,1.341-43.984,0.776-66.36
		c-0.159-6.316-0.444-12.667-0.851-18.625c-0.453-6.632-1.771-10.518-2.976-10.007c-1.11,0.47-2.05,5.125-2.448,12.044
		C42.085,192.873,41.911,208.043,41.747,228.362z"/>
	<path fill-rule="evenodd" clip-rule="evenodd" fill="#FFFFFF" d="M61.783,231.118c0,15.532,0,30.598,0,45.663
		c0,4.661,0.026,9.334-0.03,13.975c-0.013,1.041-0.315,2.775-0.495,2.821c-1.058,0.27-2.12,0.132-3.263,0.132
		c0-48.151,0-95.712,0-143.732c1.068,0,2.074-0.038,3.079,0.009c1.63,0.075,3.261,0.496,4.89,0.247
		c2.884-0.44,4.86,8.638,5.823,22.044c1.08,15.042,0.985,29.733-0.589,43.688c-1.155,10.233-2.844,15.212-5.021,15.16
		C64.748,231.09,63.321,231.118,61.783,231.118z M61.827,210.356c1.428,0,2.736,0.15,4.042-0.041
		c1.392-0.204,2.262-3.769,2.499-11.329c0.165-5.276,0.165-10.925,0.021-16.224c-0.161-5.87-0.824-10.86-1.954-11.403
		c-1.509-0.727-3.039-0.18-4.608-0.18C61.827,184.062,61.827,196.843,61.827,210.356z"/>
	<path fill-rule="evenodd" clip-rule="evenodd" fill="#FFFFFF" d="M20.591,179.893c-1.321,0-2.5,0-3.719,0
		c-0.182-6.062-0.698-10.559-1.683-13.287c-1.21-3.353-2.623-1.59-3.434,4.494c-0.814,6.106-0.727,13.575,0.318,18.886
		c0.481,2.446,1.082,4.289,1.67,5.945c2.183,6.14,4.241,13.251,5.577,24.987c1.851,16.267,2.551,33.567,0.711,51.229
		c-1.511,14.507-3.943,20.978-6.934,19.312c-3.038-1.69-5.094-11.252-6.099-27.165c-0.342-5.412-0.427-11.323-0.645-17.44
		c1.374,0,2.527-0.143,3.675,0.179c0.146,0.04,0.371,2.471,0.387,3.857c0.112,9.431,0.846,15.549,2.275,18.435
		c2.379,4.803,4.793-6.328,4.468-20.465c-0.363-15.76-2.078-25.451-4.544-32.024c-1.264-3.368-2.54-6.603-3.5-12.721
		c-1.731-11.029-2.168-26.371-1.047-39.078c1.19-13.496,3.774-22.014,6.372-21.012c2.95,1.137,5.272,11.938,5.963,27.877
		C20.511,174.378,20.525,176.98,20.591,179.893z"/>
	<path fill-rule="evenodd" clip-rule="evenodd" fill="#FFFFFF" d="M31.391,166.072c0,5.913,0.007,11.228-0.001,16.541
		c-0.054,34.643-0.124,69.285-0.149,103.927c-0.003,3.86-0.237,4.615-0.856,4.452c-0.958-0.251-1.918-0.066-2.9-0.066
		c0-42.061,0-83.351,0-125.702c-1.25,0-2.55-0.152-3.849,0.071c-0.568,0.097-0.737-1.004-0.716-4.004
		c0.033-4.631,0.009-9.274,0.009-13.895c4.436,0,8.763,0,13.192,0c0,6.07,0.022,11.496-0.026,16.901
		c-0.007,0.752-0.361,1.996-0.557,2.012c-1.111,0.089-2.223-0.13-3.335-0.234C31.985,166.055,31.767,166.072,31.391,166.072z"/>
	<path fill-rule="evenodd" clip-rule="evenodd" fill="#FE100C" d="M41.747,228.362c0.164-20.318,0.338-35.489,1.182-50.147
		c0.398-6.918,1.338-11.574,2.448-12.044c1.206-0.511,2.523,3.375,2.976,10.007c0.407,5.958,0.692,12.309,0.851,18.625
		c0.565,22.376,0.354,44.568-0.776,66.36c-0.454,8.756-1.586,13.425-3.079,13.137c-1.323-0.255-2.4-5.4-2.689-14.027
		C42.25,248.054,41.954,235.717,41.747,228.362z"/>
	<path fill-rule="evenodd" clip-rule="evenodd" fill="#FE100C" d="M61.827,210.356c0-13.513,0-26.293,0-39.178
		c1.57,0,3.099-0.547,4.608,0.18c1.13,0.543,1.793,5.534,1.954,11.403c0.145,5.299,0.145,10.948-0.021,16.224
		c-0.237,7.561-1.107,11.125-2.499,11.329C64.563,210.506,63.255,210.356,61.827,210.356z"/>
	<ellipse fill-rule="evenodd" clip-rule="evenodd" cx="38.591" cy="396.053" rx="1.059" ry="5.489"/>
</g>
</svg>
